# xmcd
#
# Track frame offsets: 
#        150
#        12838
#        25704
#        59259
#        70845
#        83379
#        96125
#        105697
#        117770
#        131996
#        166389
#        188378
#        201343
#
# Disc length: 2884 seconds
#
# Revision: 0
# Processed by: cddbd v1.5.2PL0 Copyright (c) Steve Scherf et al.
# Submitted via: ExactAudioCopy v0.99pb4
#
DISCID=a00b420d
DTITLE=James Brown - Playlist Your Way
DYEAR=2008
DGENRE=Soul
TTITLE0=I Got You (I Feel Good)
TTITLE1=Get Up (I Feel Like Being A) Sex Mchine, Part 1
TTITLE2=Cold Sweat
TTITLE3=Try Me
TTITLE4=Please, Please, Please
TTITLE5=It's A Man's Man's Man's World
TTITLE6=Papa's Got A Brand New Bag, Part 1
TTITLE7=I Got The Feelin'
TTITLE8=Hot Pants, Part 1
TTITLE9=The Payback
TTITLE10=Say It Lound - I'm Black And I'm Proud
TTITLE11=Super Bad, Part 1
TTITLE12=America Is My Home
EXTD=
EXTT0=
EXTT1=
EXTT2=
EXTT3=
EXTT4=
EXTT5=
EXTT6=
EXTT7=
EXTT8=
EXTT9=
EXTT10=
EXTT11=
EXTT12=
PLAYORDER=
